<svg width="1920" height="1080" viewBox="0 0 1920 1080" fill="none" xmlns="http://www.w3.org/2000/svg">
<path d="M341 486.3C340.6 495.7 337.9 502.9 333 507.7C328.1 512.5 321.2 515 312.3 515C302.9 515 295.8 511.9 290.8 505.8C285.8 499.6 283.3 490.9 283.3 479.5V465.6C283.3 454.2 285.9 445.5 291 439.3C296.2 433.1 303.3 430.1 312.5 430.1C321.5 430.1 328.4 432.6 333 437.7C337.7 442.7 340.3 450 341 459.4H324.2C324 453.6 323.1 449.5 321.5 447.3C319.9 445.1 316.8 444 312.4 444C307.9 444 304.8 445.6 302.9 448.7C301 451.8 300.1 457 299.9 464.1V479.7C299.9 487.9 300.8 493.6 302.7 496.6C304.5 499.7 307.7 501.2 312.2 501.2C316.6 501.2 319.6 500.1 321.3 498C323 495.9 323.9 492 324.1 486.4H341V486.3Z" fill="white"/>
<path d="M368 500H397.3V513.9H351.3V431.2H368V500Z" fill="white"/>
<path d="M424.4 431.1H407.7V513.8H424.4V431.1Z" fill="white"/>
<path d="M460.3 431.1L475.9 490.9L491.5 431.1H513.3V513.8H496.5V491.4L498 457L481.5 513.9H470.1L453.6 457L455.1 491.5V513.9H438.4V431.2H460.3V431.1Z" fill="white"/>
<path d="M567.2 496.9H544.4L540 513.8H522.3L548.2 431.1H563.5L589.5 513.8H571.7L567.2 496.9ZM548 483H563.5L555.8 453.5L548 483Z" fill="white"/>
<path d="M643.9 445H623.4V513.8H606.6V445H586.5V431.1H643.8L643.9 445Z" fill="white"/>
<path d="M696.3 478H670.3V500H701V513.9H653.5V431.2H700.9V445H670.2V464.5H696.2V478H696.3Z" fill="white"/>
<path d="M777 496.9H754.2L749.8 513.8H732.1L758 431.1H773.3L799.3 513.8H781.5L777 496.9ZM757.8 483H773.3L765.6 453.5L757.8 483Z" fill="white"/>
<path d="M864.8 513.8H848.1L823.7 459.5V513.8H807V431.1H823.7L848.2 485.4V431.1H864.8V513.8Z" fill="white"/>
<path d="M878.2 513.8V431.1H900.1C909.8 431.1 917.5 434.2 923.2 440.3C928.9 446.4 931.9 454.8 932 465.5V479C932 489.9 929.1 498.4 923.4 504.6C917.7 510.8 909.8 513.9 899.7 513.9H878.2V513.8ZM894.9 445V500H899.9C905.5 500 909.4 498.5 911.7 495.6C914 492.7 915.2 487.6 915.3 480.4V466C915.3 458.3 914.2 452.9 912.1 449.8C909.9 446.7 906.3 445.2 901.1 445H894.9Z" fill="white"/>
<path d="M1013.5 478H987.5V500H1018.3V513.9H970.8V431.2H1018.2V445H987.5V464.5H1013.5V478Z" fill="white"/>
<path d="M1085.7 513.8H1069L1044.6 459.5V513.8H1027.9V431.1H1044.6L1069.1 485.4V431.1H1085.7V513.8Z" fill="white"/>
<path d="M1141.8 478H1115.8V500H1146.6V513.9H1099.1V431.2H1146.5V445H1115.8V464.5H1141.8V478Z" fill="white"/>
<path d="M1181.3 483.6H1173V513.8H1156.3V431.1H1182.9C1191.3 431.1 1197.7 433.3 1202.3 437.6C1206.9 441.9 1209.1 448.1 1209.1 456.1C1209.1 467.1 1205.1 474.8 1197.1 479.2L1211.6 513.1V513.9H1193.6L1181.3 483.6ZM1173 469.7H1182.5C1185.8 469.7 1188.3 468.6 1190 466.4C1191.7 464.2 1192.5 461.2 1192.5 457.5C1192.5 449.2 1189.3 445.1 1182.8 445.1H1173V469.7Z" fill="white"/>
<path d="M1276.9 504.5C1273.7 508 1269.7 510.6 1265.1 512.4C1260.4 514.2 1255.3 515 1249.7 515C1240.2 515 1232.8 512.1 1227.5 506.2C1222.2 500.3 1219.5 491.7 1219.4 480.5V465.6C1219.4 454.2 1221.9 445.4 1226.9 439.3C1231.9 433.1 1239.1 430.1 1248.7 430.1C1257.7 430.1 1264.4 432.3 1269 436.7C1273.6 441.1 1276.2 448.1 1276.9 457.6H1260.7C1260.2 452.3 1259.1 448.7 1257.4 446.8C1255.7 444.9 1252.9 443.9 1249.2 443.9C1244.7 443.9 1241.4 445.5 1239.4 448.8C1237.4 452.1 1236.3 457.3 1236.2 464.5V479.5C1236.2 487 1237.3 492.5 1239.6 495.9C1241.9 499.3 1245.6 501 1250.7 501C1254 501 1256.7 500.3 1258.7 499L1260.2 498V482.8H1248.5V470.2H1277V504.5H1276.9Z" fill="white"/>
<path d="M1313.7 468.3L1326.1 431.1H1344.3L1322.1 483.8V513.8H1305.2V483.8L1283 431.1H1301.2L1313.7 468.3Z" fill="white"/>
<path d="M1396.1 431.1H1379.4V513.8H1396.1V431.1Z" fill="white"/>
<path d="M1468 513.8H1451.3L1426.9 459.5V513.8H1410.2V431.1H1426.9L1451.4 485.4V431.1H1468V513.8Z" fill="white"/>
<path d="M1558.4 445H1537.9V513.8H1521.1V445H1501V431.1H1558.3L1558.4 445Z" fill="white"/>
<path d="M1626 513.8H1609.4V478.4H1584.7V513.8H1568V431.1H1584.7V464.6H1609.4V431.1H1626V513.8Z" fill="white"/>
<path d="M1682.1 478H1656.1V500H1686.9V513.9H1639.4V431.2H1686.8V445H1656.1V464.5H1682.1V478Z" fill="white"/>
<path d="M1766.1 478H1740.1V500H1770.9V513.9H1723.4V431.2H1770.8V445H1740V464.5H1766V478H1766.1Z" fill="white"/>
<path d="M1834.2 431.1V488.4C1834.1 497 1831.8 503.6 1827.1 508.1C1822.4 512.7 1815.8 514.9 1807 514.9C1798.1 514.9 1791.4 512.6 1786.7 508C1782 503.4 1779.7 496.7 1779.7 487.9V431H1796.5V488C1796.5 492.7 1797.3 496 1798.8 498.1C1800.3 500.1 1803.1 501.1 1807 501.1C1810.9 501.1 1813.7 500.1 1815.2 498.1C1816.7 496.1 1817.4 492.8 1817.5 488.3V431.1H1834.2Z" fill="white"/>
<path d="M221.8 287V680.4" stroke="white" stroke-miterlimit="10"/>
<path d="M87.7002 602.8H1490.4" stroke="white" stroke-miterlimit="10"/>
<path d="M305.9 655.5H294.5L291.8 670.9H287.5L293.5 636.1H311.1L310.4 639.9H297.1L295 651.8H306.4L305.9 655.5Z" fill="white"/>
<path d="M314.5 670.8H310.4L314.9 645H319L314.5 670.8ZM315.8 638.2C315.8 637.5 316.1 636.9 316.5 636.4C316.9 635.9 317.5 635.6 318.2 635.6C318.9 635.6 319.4 635.8 319.9 636.3C320.3 636.8 320.6 637.4 320.5 638.1C320.5 638.8 320.2 639.4 319.8 639.9C319.4 640.4 318.8 640.7 318.1 640.7C317.4 640.7 316.8 640.5 316.4 640C316 639.5 315.8 638.9 315.8 638.2Z" fill="white"/>
<path d="M329.5 645L329 647.8C330.9 645.6 333 644.5 335.4 644.5C337 644.5 338.3 645.1 339.3 646.2C340.3 647.3 340.8 648.8 340.9 650.7C341 651.8 340.9 652.9 340.8 653.9L338 670.8H333.9L336.7 653.8L336.8 651.9C336.8 649.5 335.8 648.2 333.8 648.2C332.2 648.2 330.6 649.1 329.2 651L328.5 652L325.3 670.8H321.2L325.7 645H329.5Z" fill="white"/>
<path d="M356 644.5C358.4 644.6 360.1 645.6 361.3 647.5L363.8 634.1H367.9L361.5 670.8H357.8L358.3 668C356.6 670.2 354.6 671.3 352.2 671.2C350 671.2 348.4 670.3 347.2 668.7C346 667.1 345.4 664.7 345.4 661.7C345.4 660.3 345.6 658.4 345.9 656.1C346.3 653.8 346.8 651.8 347.6 650.2C349.5 646.3 352.3 644.4 356 644.5ZM349.5 662.8C349.6 666 350.9 667.6 353.4 667.6C354.3 667.6 355.2 667.4 356 666.9C356.8 666.4 357.7 665.6 358.5 664.4L360.7 651.3C359.9 649.3 358.6 648.3 356.7 648.2C352.9 648 350.6 650.8 349.9 656.5C349.6 659.4 349.5 661.4 349.5 662.8Z" fill="white"/>
<path d="M383.7 670.8H379.6L384 645H388.1L383.7 670.8ZM385 638.2C385 637.5 385.3 636.9 385.7 636.4C386.1 635.9 386.7 635.6 387.4 635.6C388.1 635.6 388.6 635.8 389.1 636.3C389.5 636.8 389.8 637.4 389.7 638.1C389.7 638.8 389.4 639.4 389 639.9C388.6 640.4 388 640.7 387.3 640.7C386.6 640.7 386 640.5 385.6 640C385.1 639.5 384.9 638.9 385 638.2Z" fill="white"/>
<path d="M398.7 645L398.1 647.8C400 645.6 402.1 644.5 404.5 644.5C406.1 644.5 407.4 645.1 408.4 646.2C409.4 647.3 409.9 648.8 410 650.7C410.1 651.8 410 652.9 409.9 653.9L407.1 670.8H403L405.8 653.8L405.9 651.9C405.9 649.5 404.9 648.2 402.9 648.2C401.3 648.2 399.7 649.1 398.3 651L397.6 652L394.4 670.8H390.3L394.8 645H398.7Z" fill="white"/>
<path d="M415.3 670.8L419.2 648.4H415.9L416.5 645H419.8L420.1 642.4C420.5 639.5 421.4 637.3 422.9 635.8C424.4 634.3 426.3 633.5 428.6 633.6C429.4 633.6 430.3 633.8 431.3 634.1L430.7 637.7C430.1 637.5 429.4 637.4 428.8 637.4C426.3 637.4 424.8 639.1 424.3 642.6L423.9 645H428.2L427.6 648.4H423.3L419.4 670.8H415.3Z" fill="white"/>
<path d="M430.5 656.8C431 653.1 432.3 650.1 434.3 647.8C436.3 645.5 438.9 644.4 441.9 644.5C443.8 644.5 445.4 645.1 446.7 646.2C448 647.3 448.9 648.7 449.4 650.6C449.9 652.5 450.1 654.5 449.8 656.8L449.5 659.2C449 662.9 447.7 665.9 445.7 668.1C443.7 670.3 441.1 671.4 438.1 671.3C436.2 671.3 434.6 670.7 433.3 669.7C432 668.7 431.1 667.2 430.6 665.3C430 663.4 429.9 661.4 430.2 659.2L430.5 656.8ZM434.2 660.9C434.2 663 434.5 664.7 435.2 665.9C435.9 667.1 437 667.7 438.4 667.8C440.2 667.9 441.8 667.2 443 665.8C444.2 664.4 445 662.3 445.4 659.5L445.8 656.7L445.9 655C445.9 652.8 445.6 651.2 444.9 650C444.2 648.8 443.1 648.2 441.7 648.1C439.8 648 438.3 648.8 437 650.4C435.7 652 434.9 654.3 434.6 657.2L434.3 659.6L434.2 660.9Z" fill="white"/>
<path d="M467.1 648.9C466.4 648.8 465.8 648.7 465.3 648.7C463.2 648.7 461.5 649.9 460.1 652.3L456.9 670.8H452.8L457.3 645H461.3L460.7 647.7C462.2 645.6 463.9 644.5 465.8 644.5C466.2 644.5 466.8 644.6 467.6 644.9L467.1 648.9Z" fill="white"/>
<path d="M475.8 645L475.3 647.4C477.1 645.4 479.2 644.5 481.7 644.5C483 644.5 484.1 644.9 485 645.5C485.9 646.1 486.6 647 487 648.2C489.1 645.7 491.4 644.4 494 644.5C495.7 644.5 497.1 645.1 498.1 646.1C499.1 647.1 499.7 648.6 499.8 650.5C499.9 651.6 499.9 652.7 499.8 653.8L497 670.8H493L495.8 653.8L495.9 651.8C495.9 650.7 495.6 649.8 495 649.2C494.4 648.6 493.6 648.3 492.6 648.3C491.3 648.3 490.2 648.8 489.2 649.8C488.2 650.8 487.6 652.1 487.4 653.5V653.6L484.5 670.8H480.3L483.1 653.8C483.2 653.2 483.2 652.5 483.1 651.8C483 649.5 481.9 648.3 479.9 648.2C477.9 648.2 476.3 649.2 475 651.4L471.7 670.8H467.6L472 645H475.8Z" fill="white"/>
<path d="M516.7 670.8C516.6 670.3 516.6 669.9 516.6 669.4L516.7 668C514.9 670.2 512.9 671.3 510.8 671.3C508.7 671.3 507.1 670.6 506 669.3C504.8 668 504.3 666.2 504.5 664C504.7 661.3 505.8 659.2 507.8 657.6C509.8 656 512.5 655.2 515.8 655.2H518.7L519.1 652.5C519.4 649.6 518.3 648.2 515.9 648.2C514.6 648.2 513.6 648.6 512.8 649.3C512 650 511.4 651 511.2 652.2H507.1C507.3 650 508.3 648.2 510.1 646.7C511.9 645.2 514 644.5 516.4 644.5C518.7 644.5 520.5 645.2 521.8 646.6C523.1 648 523.6 649.9 523.3 652.4L521.2 665.1C521.1 666 521 666.9 521 667.7L521.1 670.3V670.7L516.7 670.8ZM511.6 667.5C513.7 667.5 515.5 666.5 517 664.5L518.1 658.3H516.2C514.6 658.3 513.1 658.6 511.9 659.2C510.6 659.8 509.8 660.6 509.2 661.7C508.7 662.8 508.5 663.9 508.7 665.1C508.8 666.7 509.8 667.5 511.6 667.5Z" fill="white"/>
<path d="M537.4 638.7L536.3 645H540.1L539.5 648.4H535.7L533 664.5V665.5C532.9 666.9 533.4 667.5 534.5 667.5C534.9 667.5 535.5 667.4 536.2 667.3L535.8 670.9C534.9 671.2 534 671.4 533.1 671.3C531.7 671.3 530.6 670.7 529.8 669.5C529.1 668.3 528.8 666.6 529 664.4L531.6 648.4H527.8L528.4 645H532.2L533.3 638.7H537.4Z" fill="white"/>
<path d="M545.1 670.8H541L545.5 645H549.6L545.1 670.8ZM546.4 638.2C546.4 637.5 546.7 636.9 547.1 636.4C547.5 635.9 548.1 635.6 548.8 635.6C549.5 635.6 550 635.8 550.5 636.3C550.9 636.8 551.2 637.4 551.1 638.1C551.1 638.8 550.8 639.4 550.4 639.9C550 640.4 549.4 640.7 548.7 640.7C548 640.7 547.4 640.5 547 640C546.6 639.5 546.4 638.9 546.4 638.2Z" fill="white"/>
<path d="M553.5 656.8C554 653.1 555.3 650.1 557.3 647.8C559.3 645.5 561.9 644.4 564.9 644.5C566.8 644.5 568.4 645.1 569.7 646.2C571 647.3 571.9 648.7 572.4 650.6C572.9 652.5 573.1 654.5 572.8 656.8L572.5 659.2C572 662.9 570.7 665.9 568.7 668.1C566.7 670.3 564.1 671.4 561.1 671.3C559.2 671.3 557.6 670.7 556.3 669.7C555 668.7 554.1 667.2 553.6 665.3C553.1 663.4 552.9 661.4 553.2 659.2L553.5 656.8ZM557.2 660.9C557.2 663 557.5 664.7 558.2 665.9C558.9 667.1 560 667.7 561.4 667.8C563.2 667.9 564.8 667.2 566 665.8C567.2 664.4 568 662.3 568.4 659.5L568.8 656.7L568.9 655C568.9 652.8 568.6 651.2 567.9 650C567.2 648.8 566.1 648.2 564.7 648.1C562.8 648 561.3 648.8 560 650.4C558.8 652 557.9 654.3 557.6 657.2L557.3 659.6L557.2 660.9Z" fill="white"/>
<path d="M584.2 645L583.6 647.8C585.5 645.6 587.6 644.5 590 644.5C591.6 644.5 592.9 645.1 593.9 646.2C594.9 647.3 595.4 648.8 595.5 650.7C595.6 651.8 595.5 652.9 595.4 653.9L592.6 670.8H588.5L591.3 653.8L591.4 651.9C591.4 649.5 590.4 648.2 588.4 648.2C586.8 648.2 585.2 649.1 583.8 651L583.1 652L579.9 670.8H575.8L580.3 645H584.2Z" fill="white"/>
<path d="M611.8 656.8C612.3 653.1 613.6 650.1 615.6 647.8C617.6 645.5 620.2 644.4 623.2 644.5C625.1 644.5 626.7 645.1 628 646.2C629.3 647.3 630.2 648.7 630.7 650.6C631.2 652.5 631.4 654.5 631.1 656.8L630.8 659.2C630.3 662.9 629 665.9 627 668.1C625 670.3 622.4 671.4 619.4 671.3C617.5 671.3 615.9 670.7 614.6 669.7C613.3 668.7 612.4 667.2 611.9 665.3C611.4 663.4 611.2 661.4 611.5 659.2L611.8 656.8ZM615.5 660.9C615.5 663 615.8 664.7 616.5 665.9C617.2 667.1 618.3 667.7 619.7 667.8C621.5 667.9 623.1 667.2 624.3 665.8C625.5 664.4 626.3 662.3 626.7 659.5L627.1 656.7L627.2 655C627.2 652.8 626.9 651.2 626.2 650C625.5 648.8 624.4 648.2 623 648.1C621.1 648 619.6 648.8 618.3 650.4C617.1 652 616.2 654.3 615.9 657.2L615.6 659.6L615.5 660.9Z" fill="white"/>
<path d="M642.5 645L642 647.8C643.9 645.6 646 644.5 648.4 644.5C650 644.5 651.3 645.1 652.3 646.2C653.3 647.3 653.8 648.8 653.9 650.7C654 651.8 653.9 652.9 653.8 653.9L651 670.8H646.9L649.7 653.8L649.8 651.9C649.8 649.5 648.8 648.2 646.8 648.2C645.2 648.2 643.6 649.1 642.2 651L641.5 652L638.3 670.8H634.2L638.7 645H642.5Z" fill="white"/>
<path d="M679.5 638.7L678.4 645H682.2L681.6 648.4H677.8L675.1 664.5V665.5C675 666.9 675.5 667.5 676.6 667.5C677 667.5 677.6 667.4 678.3 667.3L677.9 670.9C677 671.2 676.1 671.4 675.2 671.3C673.8 671.3 672.7 670.7 671.9 669.5C671.2 668.3 670.9 666.6 671.1 664.4L673.7 648.4H669.9L670.5 645H674.3L675.4 638.7H679.5Z" fill="white"/>
<path d="M690.7 647.7C692.6 645.5 694.7 644.5 697 644.6C698.7 644.6 700 645.2 700.9 646.2C701.8 647.3 702.4 648.8 702.5 650.7C702.6 651.8 702.5 652.9 702.4 653.9L699.6 670.8H695.5L698.3 653.8L698.4 651.9C698.4 649.5 697.4 648.2 695.4 648.2C693.8 648.2 692.2 649.1 690.8 651L690.1 652L686.9 670.8H682.8L689.2 634.1H693.3L690.7 647.7Z" fill="white"/>
<path d="M715.5 671.3C712.6 671.3 710.4 670.2 709 668.2C707.6 666.1 707 663.3 707.4 659.8L707.7 657.2C708.2 653.2 709.4 650 711.4 647.8C713.4 645.5 715.8 644.4 718.8 644.5C721.3 644.6 723.1 645.4 724.3 647C725.5 648.6 726.1 650.9 726.1 653.8L725.9 656.7L725.5 659.2H711.6C711.4 660.6 711.3 661.8 711.3 662.6C711.3 664.2 711.7 665.5 712.5 666.4C713.3 667.3 714.4 667.8 715.8 667.8C716.8 667.8 717.8 667.6 718.8 667.2C719.8 666.8 720.8 666 721.9 664.9L723.8 667.6C722.8 668.9 721.5 669.9 720 670.5C718.7 671 717.2 671.3 715.5 671.3ZM718.6 648.1C715.8 648 713.8 649.7 712.7 653.2L712.1 655.5H722L722.1 654.9C722.2 654.2 722.2 653.4 722.2 652.6C722.1 649.8 720.9 648.2 718.6 648.1Z" fill="white"/>
<path d="M759 654.8H747.1L745 667.1H758.9L758.2 670.9H740L746 636.1H764L763.3 639.9H749.6L747.6 651.1H759.5L759 654.8Z" fill="white"/>
<path d="M790.3 636.1L786.1 660.6C785.6 664 784.3 666.7 782.2 668.6C780.1 670.5 777.4 671.5 774.2 671.4C771.1 671.3 768.8 670.3 767.2 668.4C765.6 666.5 765 663.9 765.4 660.6L769.6 636.1H773.9L769.7 660.7C769.6 661.7 769.6 662.5 769.7 663.4C770 666.2 771.6 667.6 774.5 667.7C776.5 667.8 778.2 667.2 779.4 666.1C780.7 665 781.5 663.2 781.9 661L786.1 636.2L790.3 636.1Z" fill="white"/>
<path d="M814.5 670.8C814.4 670.3 814.4 669.9 814.4 669.4L814.5 668C812.7 670.2 810.7 671.3 808.6 671.3C806.5 671.3 804.9 670.6 803.8 669.3C802.6 668 802.1 666.2 802.3 664C802.5 661.3 803.6 659.2 805.6 657.6C807.6 656 810.3 655.2 813.6 655.2H816.5L816.9 652.5C817.2 649.6 816.1 648.2 813.7 648.2C812.4 648.2 811.4 648.6 810.6 649.3C809.8 650 809.2 651 809 652.2H804.9C805.1 650 806.1 648.2 807.9 646.7C809.7 645.2 811.8 644.5 814.2 644.5C816.5 644.5 818.3 645.2 819.6 646.6C820.8 648 821.4 649.9 821.1 652.4L819 665.1C818.9 666 818.8 666.9 818.8 667.7L818.9 670.3V670.7L814.5 670.8ZM809.4 667.5C811.5 667.5 813.3 666.5 814.8 664.5L815.9 658.3H814C812.4 658.3 810.9 658.6 809.7 659.2C808.4 659.8 807.6 660.6 807 661.7C806.5 662.8 806.3 663.9 806.5 665.1C806.6 666.7 807.6 667.5 809.4 667.5Z" fill="white"/>
<path d="M832.6 645L832.1 647.8C834 645.6 836.1 644.5 838.5 644.5C840.1 644.5 841.4 645.1 842.4 646.2C843.4 647.3 843.9 648.8 844 650.7C844.1 651.8 844 652.9 843.9 653.9L841.1 670.8H837L839.8 653.8L839.9 651.9C839.9 649.5 838.9 648.2 836.9 648.2C835.3 648.2 833.7 649.1 832.3 651L831.6 652L828.4 670.8H824.3L828.8 645H832.6Z" fill="white"/>
<path d="M859.1 644.5C861.5 644.6 863.2 645.6 864.4 647.5L866.9 634.1H871L864.6 670.8H860.8L861.3 668C859.6 670.2 857.5 671.3 855.2 671.2C853.1 671.2 851.4 670.3 850.2 668.7C849 667.1 848.4 664.7 848.4 661.7C848.4 660.3 848.6 658.4 848.9 656.1C849.3 653.8 849.8 651.8 850.6 650.2C852.6 646.3 855.4 644.4 859.1 644.5ZM852.6 662.8C852.7 666 854 667.6 856.5 667.6C857.4 667.6 858.3 667.4 859.1 666.9C859.9 666.4 860.8 665.6 861.6 664.4L863.8 651.3C863 649.3 861.7 648.3 859.8 648.2C856 648 853.7 650.8 853 656.5C852.7 659.4 852.6 661.4 852.6 662.8Z" fill="white"/>
<path d="M886.8 670.8H882.7L887.2 645H891.3L886.8 670.8ZM888.1 638.2C888.1 637.5 888.4 636.9 888.8 636.4C889.2 635.9 889.8 635.6 890.5 635.6C891.2 635.6 891.7 635.8 892.2 636.3C892.6 636.8 892.9 637.4 892.8 638.1C892.8 638.8 892.5 639.4 892.1 639.9C891.7 640.4 891.1 640.7 890.4 640.7C889.7 640.7 889.1 640.5 888.7 640C888.2 639.5 888 638.9 888.1 638.2Z" fill="white"/>
<path d="M904.4 638.7L903.3 645H907.1L906.5 648.4H902.7L900 664.5L899.9 665.5C899.8 666.9 900.3 667.5 901.4 667.5C901.8 667.5 902.4 667.4 903.1 667.3L902.7 670.9C901.8 671.2 900.9 671.4 900 671.3C898.6 671.3 897.5 670.7 896.7 669.5C896 668.3 895.7 666.6 895.9 664.4L898.5 648.4H894.7L895.3 645H899.1L900.2 638.7H904.4Z" fill="white"/>
<path d="M921.1 664C921.3 662.5 920.5 661.2 918.6 660.2L915.4 658.5C913.7 657.6 912.6 656.6 911.9 655.6C911.2 654.6 910.9 653.4 911 652C911.1 649.8 912 648 913.7 646.6C915.4 645.2 917.4 644.5 919.8 644.5C922.1 644.6 923.9 645.3 925.2 646.8C926.5 648.3 927.1 650.1 927 652.4H922.9C922.9 651.1 922.6 650.1 922 649.4C921.4 648.7 920.6 648.3 919.5 648.2C918.3 648.2 917.3 648.5 916.5 649.2C915.7 649.9 915.2 650.8 915.1 651.9C914.9 653.2 915.5 654.3 917 655.1L921 657.2C924 658.9 925.4 661.1 925.2 663.8C925 666.1 924.1 668 922.4 669.4C920.7 670.8 918.6 671.5 916.1 671.4C913.7 671.4 911.8 670.6 910.3 669.1C908.8 667.6 908.1 665.6 908.2 663.2H912.4C912.4 664.7 912.7 665.8 913.4 666.6C914.1 667.4 915.1 667.8 916.3 667.8C917.6 667.8 918.7 667.5 919.6 666.8C920.5 666 921 665.1 921.1 664Z" fill="white"/>
<path d="M952.6 636.1L956.5 664.4L970.2 636.1H975.8L969.8 670.9H965.5L967.9 657.1L970.6 644.2L957.2 670.9H953.9L949.8 643.7L947.8 657.6L945.5 670.9H941.2L947.2 636.1H952.6Z" fill="white"/>
<path d="M986.3 671.3C983.4 671.3 981.2 670.2 979.8 668.2C978.4 666.1 977.8 663.3 978.2 659.8L978.5 657.2C979 653.2 980.2 650 982.2 647.8C984.2 645.5 986.6 644.4 989.6 644.5C992.1 644.6 993.9 645.4 995.1 647C996.3 648.6 996.9 650.9 996.9 653.8L996.7 656.7L996.3 659.2H982.4C982.2 660.6 982.1 661.8 982.1 662.6C982.1 664.2 982.5 665.5 983.3 666.4C984.1 667.3 985.2 667.8 986.6 667.8C987.6 667.8 988.6 667.6 989.6 667.2C990.6 666.8 991.6 666 992.7 664.9L994.6 667.6C993.6 668.9 992.3 669.9 990.8 670.5C989.6 671 988 671.3 986.3 671.3ZM989.4 648.1C986.6 648 984.6 649.7 983.5 653.2L982.9 655.5H992.8L992.9 654.9C993 654.2 993 653.4 993 652.6C993 649.8 991.8 648.2 989.4 648.1Z" fill="white"/>
<path d="M1007.5 645L1007 647.4C1008.8 645.4 1010.9 644.5 1013.4 644.5C1014.7 644.5 1015.8 644.9 1016.7 645.5C1017.6 646.1 1018.3 647 1018.7 648.2C1020.8 645.7 1023.1 644.4 1025.7 644.5C1027.4 644.5 1028.8 645.1 1029.8 646.1C1030.8 647.1 1031.4 648.6 1031.5 650.5C1031.6 651.6 1031.6 652.7 1031.5 653.8L1028.7 670.8H1024.6L1027.4 653.8L1027.5 651.8C1027.5 650.7 1027.2 649.8 1026.6 649.2C1026 648.6 1025.2 648.3 1024.2 648.3C1022.9 648.3 1021.8 648.8 1020.8 649.8C1019.8 650.8 1019.2 652.1 1019 653.5V653.6L1016.1 670.8H1011.9L1014.7 653.8C1014.8 653.2 1014.8 652.5 1014.7 651.8C1014.6 649.5 1013.5 648.3 1011.5 648.2C1009.5 648.2 1007.9 649.2 1006.6 651.4L1003.3 670.8H999.2L1003.7 645H1007.5Z" fill="white"/>
<path d="M1045.4 671.3C1042.8 671.2 1040.9 670 1039.8 667.7L1038.9 670.8H1035.1L1041.5 634.1H1045.6L1043 647.8C1044.7 645.5 1046.8 644.4 1049.2 644.5C1051.4 644.5 1053.1 645.4 1054.3 647C1055.4 648.6 1056 651 1055.9 654.1C1055.8 655.8 1055.6 657.7 1055.3 659.8C1055 661.9 1054.5 663.7 1053.9 665.2C1052.1 669.4 1049.3 671.4 1045.4 671.3ZM1051.8 653.1C1051.7 651.4 1051.4 650.2 1050.7 649.4C1050 648.6 1049.1 648.2 1047.9 648.2C1045.9 648.2 1044.1 649.3 1042.6 651.8L1040.5 664.1C1041.2 666.3 1042.6 667.5 1044.7 667.6C1046.6 667.7 1048.1 667 1049.2 665.6C1050.3 664.2 1051.1 662 1051.4 659C1051.7 656 1051.8 654 1051.8 653.1Z" fill="white"/>
<path d="M1068.4 671.3C1065.5 671.3 1063.3 670.2 1061.9 668.2C1060.5 666.1 1059.9 663.3 1060.3 659.8L1060.6 657.2C1061.1 653.2 1062.3 650 1064.3 647.8C1066.3 645.5 1068.7 644.4 1071.7 644.5C1074.2 644.6 1076 645.4 1077.2 647C1078.4 648.6 1079 650.9 1079 653.8L1078.8 656.7L1078.4 659.2H1064.5C1064.3 660.6 1064.2 661.8 1064.2 662.6C1064.2 664.2 1064.6 665.5 1065.4 666.4C1066.2 667.3 1067.3 667.8 1068.7 667.8C1069.7 667.8 1070.7 667.6 1071.7 667.2C1072.7 666.8 1073.7 666 1074.8 664.9L1076.7 667.6C1075.7 668.9 1074.4 669.9 1072.9 670.5C1071.6 671 1070 671.3 1068.4 671.3ZM1071.5 648.1C1068.7 648 1066.7 649.7 1065.6 653.2L1065 655.5H1074.9L1075 654.9C1075.1 654.2 1075.1 653.4 1075.1 652.6C1075 649.8 1073.8 648.2 1071.5 648.1Z" fill="white"/>
<path d="M1095.5 648.9C1094.8 648.8 1094.2 648.7 1093.7 648.7C1091.6 648.7 1089.9 649.9 1088.5 652.3L1085.3 670.8H1081.2L1085.7 645H1089.7L1089.1 647.7C1090.6 645.6 1092.3 644.5 1094.2 644.5C1094.6 644.5 1095.2 644.6 1096 644.9L1095.5 648.9Z" fill="white"/>
<path d="M1123.9 661.9C1124.1 660.5 1123.8 659.2 1123.2 658.3C1122.5 657.3 1121.2 656.4 1119.1 655.5C1117 654.6 1115.5 653.7 1114.4 652.8C1112.1 650.8 1111.1 648.4 1111.3 645.4C1111.5 642.6 1112.7 640.3 1114.7 638.4C1116.8 636.5 1119.2 635.7 1122.2 635.7C1125 635.8 1127.2 636.8 1128.8 638.8C1130.4 640.8 1131.1 643.3 1130.9 646.3H1126.6C1126.8 644.1 1126.4 642.4 1125.6 641.3C1124.8 640.2 1123.5 639.6 1121.9 639.5C1120.2 639.5 1118.7 640 1117.6 641.1C1116.4 642.2 1115.8 643.6 1115.6 645.4C1115.4 646.7 1115.7 647.9 1116.5 648.9C1117.3 649.9 1118.6 650.8 1120.5 651.6C1122.4 652.4 1123.9 653.3 1125 654.1C1127.4 656.1 1128.4 658.7 1128.2 662C1128 664.8 1126.8 667.1 1124.8 668.9C1122.8 670.7 1120.2 671.5 1117.1 671.5C1114.2 671.4 1111.9 670.4 1110.1 668.4C1108.3 666.4 1107.6 663.9 1107.7 660.9H1112C1111.8 663 1112.2 664.6 1113.1 665.8C1114 667 1115.4 667.7 1117.3 667.7C1119 667.8 1120.5 667.3 1121.7 666.2C1123 665.1 1123.7 663.7 1123.9 661.9Z" fill="white"/>
<path d="M1142.8 638.7L1141.7 645H1145.5L1144.9 648.4H1141.1L1138.4 664.5V665.5C1138.3 666.9 1138.8 667.5 1139.9 667.5C1140.3 667.5 1140.9 667.4 1141.6 667.3L1141.2 670.9C1140.3 671.2 1139.4 671.4 1138.5 671.3C1137 671.3 1136 670.7 1135.2 669.5C1134.5 668.3 1134.2 666.6 1134.4 664.4L1137 648.4H1133.2L1133.8 645H1137.6L1138.7 638.7H1142.8Z" fill="white"/>
<path d="M1159.3 670.8C1159.2 670.3 1159.2 669.9 1159.2 669.4L1159.3 668C1157.5 670.2 1155.5 671.3 1153.4 671.3C1151.3 671.3 1149.7 670.6 1148.6 669.3C1147.4 668 1146.9 666.2 1147.1 664C1147.3 661.3 1148.4 659.2 1150.4 657.6C1152.4 656 1155.1 655.2 1158.4 655.2H1161.3L1161.7 652.5C1162 649.6 1160.9 648.2 1158.5 648.2C1157.2 648.2 1156.2 648.6 1155.4 649.3C1154.6 650 1154 651 1153.8 652.2H1149.7C1149.9 650 1150.9 648.2 1152.7 646.7C1154.5 645.2 1156.6 644.5 1159 644.5C1161.3 644.5 1163.1 645.2 1164.4 646.6C1165.7 648 1166.2 649.9 1165.9 652.4L1163.8 665.1C1163.7 666 1163.6 666.9 1163.6 667.7L1163.7 670.3V670.7L1159.3 670.8ZM1154.2 667.5C1156.3 667.5 1158.1 666.5 1159.5 664.5L1160.6 658.3H1158.7C1157.1 658.3 1155.6 658.6 1154.4 659.2C1153.1 659.8 1152.3 660.6 1151.7 661.7C1151.2 662.8 1151 663.9 1151.2 665.1C1151.4 666.7 1152.4 667.5 1154.2 667.5Z" fill="white"/>
<path d="M1180 638.7L1178.9 645H1182.7L1182.1 648.4H1178.3L1175.6 664.5V665.5C1175.5 666.9 1176 667.5 1177.1 667.5C1177.5 667.5 1178.1 667.4 1178.8 667.3L1178.4 670.9C1177.5 671.2 1176.6 671.4 1175.7 671.3C1174.3 671.3 1173.2 670.7 1172.4 669.5C1171.7 668.3 1171.4 666.6 1171.6 664.4L1174.2 648.4H1170.4L1171 645H1174.8L1175.9 638.7H1180Z" fill="white"/>
<path d="M1192.9 671.3C1190 671.3 1187.8 670.2 1186.4 668.2C1185 666.1 1184.4 663.3 1184.8 659.8L1185.1 657.2C1185.6 653.2 1186.8 650 1188.8 647.8C1190.8 645.5 1193.2 644.4 1196.2 644.5C1198.7 644.6 1200.5 645.4 1201.7 647C1202.9 648.6 1203.5 650.9 1203.5 653.8L1203.3 656.7L1202.9 659.2H1189C1188.8 660.6 1188.7 661.8 1188.7 662.6C1188.7 664.2 1189.1 665.5 1189.9 666.4C1190.7 667.3 1191.8 667.8 1193.2 667.8C1194.2 667.8 1195.2 667.6 1196.2 667.2C1197.2 666.8 1198.2 666 1199.3 664.9L1201.2 667.6C1200.2 668.9 1198.9 669.9 1197.4 670.5C1196.1 671 1194.6 671.3 1192.9 671.3ZM1196 648.1C1193.2 648 1191.2 649.7 1190.1 653.2L1189.5 655.5H1199.4L1199.5 654.9C1199.6 654.2 1199.6 653.4 1199.6 652.6C1199.5 649.8 1198.3 648.2 1196 648.1Z" fill="white"/>
<path d="M1219.2 664C1219.4 662.5 1218.6 661.2 1216.7 660.2L1213.5 658.5C1211.8 657.6 1210.7 656.6 1210 655.6C1209.3 654.6 1209 653.4 1209.1 652C1209.2 649.8 1210.1 648 1211.8 646.6C1213.5 645.2 1215.5 644.5 1217.9 644.5C1220.2 644.6 1222 645.3 1223.3 646.8C1224.6 648.3 1225.2 650.1 1225.1 652.4H1221C1221 651.1 1220.7 650.1 1220.1 649.4C1219.5 648.7 1218.6 648.3 1217.6 648.2C1216.4 648.2 1215.4 648.5 1214.6 649.2C1213.8 649.9 1213.3 650.8 1213.2 651.9C1213 653.2 1213.6 654.3 1215.1 655.1L1219.1 657.2C1222.1 658.9 1223.5 661.1 1223.3 663.8C1223.1 666.1 1222.2 668 1220.5 669.4C1218.8 670.8 1216.7 671.5 1214.2 671.4C1211.8 671.4 1209.9 670.6 1208.4 669.1C1206.9 667.6 1206.2 665.6 1206.3 663.2H1210.5C1210.5 664.7 1210.8 665.8 1211.5 666.6C1212.2 667.4 1213.2 667.8 1214.4 667.8C1215.7 667.8 1216.8 667.5 1217.7 666.8C1218.6 666 1219.1 665.1 1219.2 664Z" fill="white"/>
<path d="M1236 637L1234.2 645.6H1231.1L1232.9 634.2H1236.4L1236 637Z" fill="white"/>
<path d="M295.3 735.3C292.8 735.2 291 734.2 289.8 732.3L287.5 744.7H283.4L289.6 708.9H293.3L292.8 711.8C294.6 709.5 296.6 708.4 299.1 708.4C301.4 708.4 303.1 709.3 304.2 711C305.3 712.7 305.8 715 305.8 718C305.8 719.4 305.6 721.2 305.2 723.4C304.9 725.6 304.4 727.5 303.8 729C302.1 733.3 299.2 735.4 295.3 735.3ZM301.7 717C301.5 713.9 300.1 712.2 297.6 712.2C295.7 712.2 294 713.2 292.6 715.2L290.3 728.7C291.1 730.6 292.4 731.6 294.3 731.7C296.2 731.8 297.7 731.1 298.9 729.7C300.1 728.3 300.9 726.1 301.3 723.2C301.6 720.2 301.7 718.1 301.7 717Z" fill="white"/>
<path d="M323 712.9C322.3 712.8 321.7 712.7 321.2 712.7C319.1 712.7 317.4 713.9 316 716.3L312.8 734.8H308.7L313.2 709H317.2L316.6 711.7C318.1 709.6 319.8 708.5 321.7 708.5C322.1 708.5 322.7 708.6 323.5 708.9L323 712.9Z" fill="white"/>
<path d="M324.6 720.7C325.1 717 326.4 714 328.4 711.7C330.4 709.4 333 708.3 336 708.4C337.9 708.4 339.5 709 340.8 710.1C342.1 711.2 343 712.6 343.5 714.5C344.1 716.4 344.2 718.4 343.9 720.7L343.6 723.1C343.1 726.8 341.8 729.8 339.8 732C337.8 734.2 335.2 735.3 332.2 735.2C330.3 735.2 328.7 734.6 327.4 733.6C326.1 732.6 325.2 731.1 324.7 729.2C324.2 727.3 324 725.3 324.3 723.1L324.6 720.7ZM328.3 724.9C328.3 727 328.6 728.7 329.3 729.9C330 731.1 331.1 731.7 332.5 731.8C334.3 731.9 335.9 731.2 337.1 729.8C338.3 728.4 339.1 726.3 339.5 723.5L339.9 720.7L340 719C340 716.8 339.7 715.2 339 714C338.3 712.8 337.2 712.2 335.8 712.1C333.9 712 332.4 712.8 331.1 714.4C329.8 716 329 718.3 328.7 721.2L328.4 723.6L328.3 724.9Z" fill="white"/>
<path d="M358.7 708.5C361.2 708.6 363.1 709.7 364.2 711.9L365.1 709H368.9L364.5 735.1C364.2 737.1 363.6 738.9 362.7 740.5C361.8 742 360.6 743.2 359.1 744C357.6 744.8 355.9 745.2 354 745.1C352.6 745.1 351.3 744.7 349.9 744.1C348.5 743.5 347.4 742.7 346.6 741.7L348.6 738.9C350.1 740.6 351.9 741.5 353.9 741.5C355.6 741.6 357.1 741.1 358.2 740C359.3 739 360.1 737.4 360.4 735.3L361 732.3C359.3 734.4 357.3 735.4 355 735.3C352.8 735.3 351.1 734.4 349.9 732.7C348.7 731 348.2 728.7 348.2 725.8C348.2 724.5 348.3 722.8 348.7 720.6C349.3 716.6 350.4 713.6 352.1 711.5C353.7 709.4 355.9 708.4 358.7 708.5ZM352.2 726.7C352.3 729.9 353.6 731.5 356.1 731.5C358 731.5 359.7 730.5 361.2 728.3L363.4 715.3C362.6 713.3 361.2 712.2 359.4 712.1C355.6 712 353.3 714.8 352.5 720.5C352.3 723.4 352.2 725.5 352.2 726.7Z" fill="white"/>
<path d="M384.9 712.9C384.2 712.8 383.6 712.7 383.1 712.7C381 712.7 379.3 713.9 377.9 716.3L374.7 734.8H370.6L375.1 709H379.1L378.5 711.7C380 709.6 381.7 708.5 383.6 708.5C384 708.5 384.6 708.6 385.4 708.9L384.9 712.9Z" fill="white"/>
<path d="M394.4 735.3C391.5 735.3 389.3 734.2 387.9 732.2C386.5 730.1 385.9 727.3 386.3 723.8L386.6 721.2C387.1 717.2 388.3 714 390.3 711.8C392.3 709.5 394.7 708.4 397.7 708.5C400.2 708.6 402 709.4 403.2 711C404.4 712.6 405 714.9 405 717.8L404.8 720.7L404.4 723.2H390.5C390.3 724.6 390.2 725.8 390.2 726.6C390.2 728.2 390.6 729.5 391.4 730.4C392.2 731.3 393.3 731.8 394.7 731.8C395.7 731.8 396.7 731.6 397.7 731.2C398.7 730.8 399.7 730 400.8 728.9L402.7 731.6C401.7 732.9 400.4 733.9 398.9 734.5C397.6 735 396.1 735.3 394.4 735.3ZM397.5 712.1C394.7 712 392.7 713.7 391.6 717.2L391 719.5H400.9L401 718.9C401.1 718.2 401.1 717.4 401.1 716.6C401.1 713.7 399.9 712.2 397.5 712.1Z" fill="white"/>
<path d="M420.7 728C420.9 726.5 420.1 725.2 418.2 724.2L415 722.5C413.3 721.6 412.2 720.6 411.5 719.6C410.8 718.6 410.5 717.4 410.6 716C410.7 713.8 411.6 712 413.3 710.6C415 709.2 417 708.5 419.4 708.5C421.7 708.6 423.5 709.3 424.8 710.8C426.1 712.3 426.7 714.1 426.6 716.4H422.5C422.5 715.1 422.2 714.1 421.6 713.4C421 712.7 420.2 712.3 419.1 712.2C417.9 712.2 416.9 712.5 416.1 713.2C415.3 713.9 414.8 714.8 414.7 715.9C414.5 717.2 415.1 718.3 416.6 719.1L420.6 721.2C423.6 722.9 425 725.1 424.8 727.8C424.6 730.1 423.7 732 422 733.4C420.3 734.8 418.2 735.5 415.7 735.4C413.3 735.4 411.4 734.6 409.9 733.1C408.4 731.6 407.7 729.6 407.8 727.2H412C412 728.7 412.3 729.8 413 730.6C413.7 731.4 414.7 731.8 415.9 731.8C417.2 731.8 418.3 731.5 419.2 730.8C420.1 730 420.6 729.1 420.7 728Z" fill="white"/>
<path d="M442.6 728C442.8 726.5 442 725.2 440.1 724.2L436.9 722.5C435.2 721.6 434.1 720.6 433.4 719.6C432.7 718.6 432.5 717.4 432.5 716C432.6 713.8 433.5 712 435.2 710.6C436.9 709.2 438.9 708.5 441.3 708.5C443.6 708.6 445.4 709.3 446.7 710.8C448 712.3 448.6 714.1 448.5 716.4H444.4C444.4 715.1 444.1 714.1 443.5 713.4C442.9 712.7 442 712.3 441 712.2C439.8 712.2 438.8 712.5 438 713.2C437.2 713.9 436.7 714.8 436.6 715.9C436.4 717.2 437 718.3 438.5 719.1L442.5 721.2C445.5 722.9 446.9 725.1 446.7 727.8C446.5 730.1 445.6 732 443.9 733.4C442.2 734.8 440.1 735.5 437.6 735.4C435.2 735.4 433.3 734.6 431.8 733.1C430.3 731.6 429.6 729.6 429.7 727.2H433.9C433.9 728.7 434.2 729.8 434.9 730.6C435.6 731.4 436.6 731.8 437.8 731.8C439.1 731.8 440.2 731.5 441.1 730.8C441.9 730 442.4 729.1 442.6 728Z" fill="white"/>
<path d="M473.792 702.188L472.669 708.584H476.551L475.94 712.075H472.083L469.3 728.506L469.251 729.482C469.186 730.866 469.682 731.558 470.74 731.558C471.131 731.574 471.717 731.493 472.498 731.313L472.132 735C471.22 735.326 470.301 735.472 469.373 735.439C467.892 735.439 466.777 734.829 466.028 733.608C465.28 732.388 465.003 730.662 465.198 728.433L467.884 712.075H463.953L464.588 708.584H468.47L469.593 702.188H473.792ZM478.156 720.62C478.693 716.828 479.987 713.776 482.038 711.465C484.105 709.137 486.709 708.014 489.851 708.096C491.804 708.145 493.431 708.714 494.733 709.805C496.035 710.879 496.963 712.368 497.517 714.272C498.086 716.177 498.241 718.276 497.98 720.571L497.688 723.062C497.15 726.838 495.848 729.873 493.781 732.168C491.714 734.463 489.118 735.57 485.993 735.488C484.04 735.439 482.412 734.878 481.11 733.804C479.808 732.729 478.872 731.24 478.303 729.336C477.749 727.432 477.603 725.34 477.863 723.062L478.156 720.62ZM481.94 724.844C481.892 727.025 482.225 728.717 482.941 729.922C483.674 731.126 484.772 731.761 486.237 731.826C488.125 731.908 489.688 731.24 490.925 729.824C492.162 728.392 492.992 726.252 493.415 723.403L493.781 720.547L493.903 718.789C493.952 716.592 493.602 714.891 492.854 713.687C492.121 712.482 491.031 711.847 489.582 711.782C487.661 711.701 486.058 712.498 484.772 714.175C483.503 715.835 482.681 718.146 482.307 721.108L482.014 723.525L481.94 724.844ZM521.168 727.358L528.321 708.584H532.618L521.754 735H518.385L516.7 716.152L508.546 735H505.152L503.492 708.584H507.521L508.302 726.846L516.236 708.584H519.581L521.168 727.358ZM545.869 735C545.771 734.512 545.731 734.032 545.747 733.56L545.845 732.119C543.973 734.382 541.955 735.513 539.79 735.513C537.674 735.513 536.022 734.829 534.834 733.462C533.662 732.078 533.141 730.256 533.271 727.993C533.451 725.259 534.574 723.07 536.641 721.426C538.724 719.782 541.45 718.96 544.819 718.96H547.749L548.164 716.152C548.457 713.239 547.358 711.782 544.868 711.782C543.582 711.782 542.508 712.165 541.646 712.93C540.799 713.678 540.262 714.663 540.034 715.884L535.859 715.908C536.071 713.678 537.08 711.807 538.887 710.293C540.71 708.779 542.85 708.039 545.308 708.071C547.684 708.104 549.507 708.836 550.776 710.269C552.062 711.685 552.583 713.67 552.339 716.226L550.19 729.238C550.044 730.166 549.987 731.053 550.02 731.899L550.166 734.585L550.117 735H545.869ZM540.669 731.606C542.785 731.606 544.608 730.573 546.138 728.506L547.236 722.183L545.308 722.158C543.647 722.158 542.174 722.467 540.889 723.086C539.603 723.688 538.691 724.535 538.154 725.625C537.633 726.699 537.454 727.871 537.617 729.141C537.829 730.785 538.846 731.606 540.669 731.606ZM570.204 712.612C569.504 712.466 568.878 712.393 568.324 712.393C566.192 712.393 564.434 713.621 563.051 716.079L559.779 735H555.556L560.146 708.584L564.223 708.56L563.637 711.27C565.183 709.072 566.924 707.998 568.861 708.047C569.252 708.063 569.854 708.185 570.668 708.413L570.204 712.612ZM581.795 708.12C584.22 708.185 586.027 709.211 587.215 711.196L589.754 697.5H593.978L587.483 735H583.65L584.114 732.168C582.373 734.447 580.281 735.553 577.84 735.488C575.643 735.456 573.942 734.601 572.737 732.925C571.549 731.248 570.955 728.848 570.955 725.723C570.955 724.274 571.142 722.354 571.517 719.961C571.891 717.568 572.469 715.542 573.25 713.882C575.105 709.927 577.954 708.006 581.795 708.12ZM575.154 726.772C575.236 730.011 576.578 731.655 579.183 731.704C580.11 731.737 580.997 731.509 581.844 731.021C582.69 730.516 583.545 729.661 584.407 728.457L586.702 715.078C585.888 713.044 584.529 711.986 582.625 711.904C578.768 711.709 576.44 714.541 575.643 720.4C575.252 723.265 575.089 725.389 575.154 726.772ZM607.644 728.042C607.855 726.496 606.993 725.21 605.056 724.185L601.784 722.476C600.091 721.532 598.903 720.531 598.22 719.473C597.552 718.415 597.259 717.186 597.341 715.786C597.471 713.556 598.382 711.709 600.075 710.244C601.768 708.779 603.835 708.063 606.276 708.096C608.636 708.161 610.484 708.942 611.818 710.439C613.153 711.921 613.771 713.817 613.674 716.128H609.499C609.532 714.81 609.239 713.776 608.62 713.027C608.002 712.262 607.139 711.864 606.032 711.831C604.779 711.831 603.745 712.189 602.932 712.905C602.118 713.605 601.63 714.517 601.467 715.64C601.271 716.958 601.914 718.04 603.396 718.887L607.521 720.986C610.565 722.679 612.006 724.925 611.843 727.725C611.68 730.117 610.72 732.03 608.962 733.462C607.204 734.878 605.064 735.553 602.541 735.488C600.116 735.456 598.146 734.666 596.633 733.12C595.119 731.558 594.411 729.548 594.509 727.09L598.757 727.114C598.724 728.644 599.058 729.808 599.758 730.605C600.458 731.387 601.451 731.777 602.736 731.777C604.087 731.777 605.202 731.436 606.081 730.752C606.976 730.068 607.497 729.165 607.644 728.042ZM638.345 702.188L637.222 708.584H641.104L640.493 712.075H636.636L633.853 728.506L633.804 729.482C633.739 730.866 634.235 731.558 635.293 731.558C635.684 731.574 636.27 731.493 637.051 731.313L636.685 735C635.773 735.326 634.854 735.472 633.926 735.439C632.445 735.439 631.33 734.829 630.581 733.608C629.832 732.388 629.556 730.662 629.751 728.433L632.437 712.075H628.506L629.141 708.584H633.022L634.146 702.188H638.345ZM649.594 711.318C651.563 709.121 653.703 708.055 656.015 708.12C657.707 708.136 659.034 708.698 659.994 709.805C660.971 710.895 661.524 712.425 661.654 714.395C661.719 715.518 661.695 716.616 661.581 717.69L658.7 735H654.501L657.406 717.617L657.504 715.688C657.504 713.198 656.479 711.929 654.428 711.88C652.751 711.831 651.189 712.783 649.74 714.736L649.008 715.786L645.688 735H641.464L647.982 697.5H652.206L649.594 711.318ZM674.759 735.488C671.797 735.456 669.583 734.39 668.118 732.29C666.653 730.19 666.116 727.326 666.507 723.696L666.824 721.084C667.329 716.982 668.574 713.776 670.56 711.465C672.562 709.137 675.101 708.014 678.177 708.096C680.683 708.161 682.563 709.023 683.816 710.684C685.086 712.327 685.688 714.647 685.623 717.642L685.403 720.571L685.037 723.086L670.877 723.062C670.665 724.526 670.568 725.674 670.584 726.504C670.617 728.148 671.023 729.442 671.805 730.386C672.586 731.313 673.701 731.785 675.149 731.802C676.191 731.834 677.216 731.631 678.226 731.191C679.251 730.736 680.325 729.946 681.448 728.823L683.426 731.582C682.384 732.949 681.098 733.95 679.568 734.585C678.038 735.22 676.435 735.521 674.759 735.488ZM677.908 711.782C675.027 711.652 673.009 713.394 671.854 717.007L671.194 719.375L681.326 719.399L681.448 718.765C681.546 718.016 681.595 717.235 681.595 716.421C681.53 713.459 680.301 711.912 677.908 711.782ZM692.16 735H687.937L692.526 708.584H696.75L692.16 735ZM693.503 701.602C693.535 700.902 693.763 700.291 694.187 699.771C694.61 699.25 695.188 698.973 695.92 698.94C696.62 698.908 697.198 699.144 697.653 699.648C698.109 700.153 698.321 700.78 698.288 701.528C698.256 702.244 698.02 702.863 697.58 703.384C697.157 703.888 696.579 704.149 695.847 704.165C695.131 704.198 694.553 703.962 694.113 703.457C693.674 702.952 693.47 702.334 693.503 701.602ZM713.37 712.612C712.67 712.466 712.044 712.393 711.49 712.393C709.358 712.393 707.6 713.621 706.217 716.079L702.945 735H698.722L703.312 708.584L707.389 708.56L706.803 711.27C708.349 709.072 710.09 707.998 712.027 708.047C712.418 708.063 713.02 708.185 713.834 708.413L713.37 712.612ZM743.803 735H724.491L725.028 731.558L737.772 717.153C739.416 715.265 740.613 713.516 741.361 711.904C742.11 710.293 742.419 708.592 742.289 706.802C742.175 705.549 741.801 704.556 741.166 703.823C740.531 703.075 739.693 702.676 738.651 702.627C736.877 702.578 735.421 703.205 734.281 704.507C733.158 705.809 732.45 707.607 732.157 709.902L728.007 709.927C728.332 706.639 729.48 703.978 731.449 701.943C733.435 699.893 735.909 698.9 738.871 698.965C741.426 699.03 743.412 699.933 744.828 701.675C746.26 703.416 746.854 705.63 746.61 708.315C746.317 711.44 744.69 714.81 741.728 718.423L739.994 720.474L730.253 731.313H744.389L743.803 735ZM757.859 735.513C753.367 735.399 750.95 732.371 750.608 726.431C750.494 724.347 750.641 721.922 751.048 719.155L751.976 713.003C752.838 707.957 754.205 704.344 756.077 702.163C757.949 699.966 760.358 698.9 763.304 698.965C767.796 699.079 770.213 702.033 770.555 707.827C770.652 709.552 770.547 711.75 770.237 714.419L769.114 721.792C768.252 726.659 766.876 730.19 764.988 732.388C763.1 734.569 760.724 735.61 757.859 735.513ZM766.551 709.512C766.648 707.168 766.396 705.459 765.794 704.385C765.192 703.311 764.264 702.733 763.011 702.651C759.544 702.456 757.314 705.516 756.321 711.831L754.979 720.913C754.767 722.459 754.645 723.721 754.612 724.697C754.433 729.352 755.605 731.729 758.128 731.826C761.546 732.005 763.759 728.978 764.769 722.744L766.014 714.492C766.323 712.409 766.502 710.749 766.551 709.512ZM781.047 715.029L783.61 715.078C785.71 715.046 787.354 714.256 788.542 712.71C789.746 711.147 790.235 709.113 790.007 706.606C789.893 705.353 789.51 704.385 788.859 703.701C788.208 703.001 787.338 702.643 786.247 702.627C784.815 702.594 783.602 703.107 782.609 704.165C781.617 705.207 780.965 706.737 780.656 708.755L776.506 708.779C776.783 705.898 777.84 703.53 779.68 701.675C781.535 699.819 783.814 698.908 786.516 698.94C788.241 698.973 789.714 699.421 790.935 700.283C792.155 701.13 793.05 702.301 793.62 703.799C794.19 705.296 794.393 706.973 794.23 708.828C794.068 710.586 793.474 712.165 792.448 713.564C791.439 714.948 790.129 716.055 788.518 716.885C789.852 717.568 790.821 718.61 791.423 720.01C792.025 721.393 792.245 723.029 792.082 724.917C791.789 728.091 790.674 730.662 788.737 732.632C786.817 734.601 784.432 735.553 781.584 735.488C778.996 735.423 776.97 734.479 775.505 732.656C774.056 730.833 773.405 728.49 773.552 725.625H777.775C777.645 727.562 777.938 729.067 778.654 730.142C779.387 731.216 780.445 731.769 781.828 731.802C783.505 731.851 784.888 731.257 785.979 730.02C787.069 728.783 787.712 727.106 787.907 724.99C788.103 723.07 787.801 721.564 787.004 720.474C786.223 719.383 785.035 718.805 783.439 718.74L780.437 718.716L781.047 715.029ZM805.797 735.513C801.305 735.399 798.888 732.371 798.546 726.431C798.432 724.347 798.578 721.922 798.985 719.155L799.913 713.003C800.776 707.957 802.143 704.344 804.015 702.163C805.886 699.966 808.295 698.9 811.241 698.965C815.733 699.079 818.15 702.033 818.492 707.827C818.59 709.552 818.484 711.75 818.175 714.419L817.052 721.792C816.189 726.659 814.814 730.19 812.926 732.388C811.038 734.569 808.661 735.61 805.797 735.513ZM814.488 709.512C814.586 707.168 814.334 705.459 813.731 704.385C813.129 703.311 812.201 702.733 810.948 702.651C807.481 702.456 805.252 705.516 804.259 711.831L802.916 720.913C802.704 722.459 802.582 723.721 802.55 724.697C802.371 729.352 803.543 731.729 806.065 731.826C809.483 732.005 811.697 728.978 812.706 722.744L813.951 714.492C814.26 712.409 814.439 710.749 814.488 709.512ZM842.821 702.188L841.698 708.584H845.58L844.97 712.075H841.112L838.329 728.506L838.28 729.482C838.215 730.866 838.712 731.558 839.77 731.558C840.16 731.574 840.746 731.493 841.527 731.313L841.161 735C840.25 735.326 839.33 735.472 838.402 735.439C836.921 735.439 835.806 734.829 835.058 733.608C834.309 732.388 834.032 730.662 834.228 728.433L836.913 712.075H832.982L833.617 708.584H837.499L838.622 702.188H842.821ZM859.49 735C859.393 734.512 859.352 734.032 859.368 733.56L859.466 732.119C857.594 734.382 855.576 735.513 853.411 735.513C851.295 735.513 849.643 734.829 848.455 733.462C847.283 732.078 846.762 730.256 846.893 727.993C847.072 725.259 848.195 723.07 850.262 721.426C852.345 719.782 855.071 718.96 858.44 718.96H861.37L861.785 716.152C862.078 713.239 860.979 711.782 858.489 711.782C857.203 711.782 856.129 712.165 855.267 712.93C854.42 713.678 853.883 714.663 853.655 715.884L849.48 715.908C849.692 713.678 850.701 711.807 852.508 710.293C854.331 708.779 856.471 708.039 858.929 708.071C861.305 708.104 863.128 708.836 864.397 710.269C865.683 711.685 866.204 713.67 865.96 716.226L863.812 729.238C863.665 730.166 863.608 731.053 863.641 731.899L863.787 734.585L863.738 735H859.49ZM854.29 731.606C856.406 731.606 858.229 730.573 859.759 728.506L860.857 722.183L858.929 722.158C857.269 722.158 855.796 722.467 854.51 723.086C853.224 723.688 852.312 724.535 851.775 725.625C851.255 726.699 851.076 727.871 851.238 729.141C851.45 730.785 852.467 731.606 854.29 731.606ZM883.825 712.612C883.125 712.466 882.499 712.393 881.945 712.393C879.813 712.393 878.055 713.621 876.672 716.079L873.4 735H869.177L873.767 708.584L877.844 708.56L877.258 711.27C878.804 709.072 880.546 707.998 882.482 708.047C882.873 708.063 883.475 708.185 884.289 708.413L883.825 712.612ZM895.416 708.096C898.004 708.161 899.868 709.316 901.007 711.562L901.886 708.584H905.719L901.202 735.22C900.925 737.303 900.307 739.134 899.347 740.713C898.403 742.292 897.174 743.488 895.66 744.302C894.146 745.116 892.421 745.49 890.484 745.425C889.101 745.392 887.709 745.05 886.31 744.399C884.91 743.765 883.779 742.951 882.916 741.958L884.918 739.053C886.497 740.778 888.295 741.673 890.313 741.738C892.088 741.803 893.544 741.307 894.684 740.249C895.839 739.191 896.604 737.596 896.979 735.464L897.613 732.388C895.872 734.52 893.837 735.553 891.51 735.488C889.247 735.456 887.522 734.577 886.334 732.852C885.162 731.126 884.592 728.758 884.625 725.747C884.625 724.461 884.78 722.703 885.089 720.474C885.659 716.388 886.806 713.288 888.531 711.172C890.273 709.04 892.568 708.014 895.416 708.096ZM888.824 726.772C888.906 730.011 890.24 731.655 892.828 731.704C894.781 731.753 896.531 730.654 898.077 728.408L900.348 715.151C899.501 713.068 898.15 711.986 896.295 711.904C892.389 711.758 890.053 714.639 889.288 720.547C888.914 723.395 888.759 725.47 888.824 726.772ZM917.212 735.488C914.25 735.456 912.036 734.39 910.571 732.29C909.106 730.19 908.569 727.326 908.96 723.696L909.277 721.084C909.782 716.982 911.027 713.776 913.013 711.465C915.015 709.137 917.554 708.014 920.63 708.096C923.136 708.161 925.016 709.023 926.27 710.684C927.539 712.327 928.141 714.647 928.076 717.642L927.856 720.571L927.49 723.086L913.33 723.062C913.118 724.526 913.021 725.674 913.037 726.504C913.07 728.148 913.477 729.442 914.258 730.386C915.039 731.313 916.154 731.785 917.603 731.802C918.644 731.834 919.67 731.631 920.679 731.191C921.704 730.736 922.778 729.946 923.901 728.823L925.879 731.582C924.837 732.949 923.551 733.95 922.021 734.585C920.492 735.22 918.888 735.521 917.212 735.488ZM920.361 711.782C917.48 711.652 915.462 713.394 914.307 717.007L913.647 719.375L923.779 719.399L923.901 718.765C923.999 718.016 924.048 717.235 924.048 716.421C923.983 713.459 922.754 711.912 920.361 711.782ZM941.278 702.188L940.155 708.584H944.037L943.427 712.075H939.569L936.786 728.506L936.737 729.482C936.672 730.866 937.169 731.558 938.227 731.558C938.617 731.574 939.203 731.493 939.984 731.313L939.618 735C938.707 735.326 937.787 735.472 936.859 735.439C935.378 735.439 934.263 734.829 933.515 733.608C932.766 732.388 932.489 730.662 932.685 728.433L935.37 712.075H931.439L932.074 708.584H935.956L937.079 702.188H941.278ZM958.167 728.042C958.379 726.496 957.516 725.21 955.579 724.185L952.308 722.476C950.615 721.532 949.427 720.531 948.743 719.473C948.076 718.415 947.783 717.186 947.864 715.786C947.994 713.556 948.906 711.709 950.599 710.244C952.291 708.779 954.358 708.063 956.8 708.096C959.16 708.161 961.007 708.942 962.342 710.439C963.676 711.921 964.295 713.817 964.197 716.128H960.022C960.055 714.81 959.762 713.776 959.144 713.027C958.525 712.262 957.662 711.864 956.556 711.831C955.302 711.831 954.269 712.189 953.455 712.905C952.641 713.605 952.153 714.517 951.99 715.64C951.795 716.958 952.438 718.04 953.919 718.887L958.045 720.986C961.089 722.679 962.529 724.925 962.366 727.725C962.203 730.117 961.243 732.03 959.485 733.462C957.728 734.878 955.587 735.553 953.064 735.488C950.639 735.456 948.67 734.666 947.156 733.12C945.643 731.558 944.935 729.548 945.032 727.09L949.28 727.114C949.248 728.644 949.581 729.808 950.281 730.605C950.981 731.387 951.974 731.777 953.26 731.777C954.611 731.777 955.726 731.436 956.604 730.752C957.5 730.068 958.021 729.165 958.167 728.042ZM979.371 720.62C979.908 716.828 981.202 713.776 983.253 711.465C985.32 709.137 987.924 708.014 991.065 708.096C993.019 708.145 994.646 708.714 995.948 709.805C997.25 710.879 998.178 712.368 998.731 714.272C999.301 716.177 999.456 718.276 999.195 720.571L998.902 723.062C998.365 726.838 997.063 729.873 994.996 732.168C992.929 734.463 990.333 735.57 987.208 735.488C985.255 735.439 983.627 734.878 982.325 733.804C981.023 732.729 980.087 731.24 979.518 729.336C978.964 727.432 978.818 725.34 979.078 723.062L979.371 720.62ZM983.155 724.844C983.106 727.025 983.44 728.717 984.156 729.922C984.889 731.126 985.987 731.761 987.452 731.826C989.34 731.908 990.903 731.24 992.14 729.824C993.377 728.392 994.207 726.252 994.63 723.403L994.996 720.547L995.118 718.789C995.167 716.592 994.817 714.891 994.068 713.687C993.336 712.482 992.245 711.847 990.797 711.782C988.876 711.701 987.273 712.498 985.987 714.175C984.718 715.835 983.896 718.146 983.521 721.108L983.229 723.525L983.155 724.844ZM1010.54 708.56L1009.98 711.44C1011.9 709.178 1014.08 708.063 1016.52 708.096C1018.2 708.112 1019.53 708.682 1020.5 709.805C1021.5 710.928 1022.06 712.458 1022.19 714.395C1022.25 715.518 1022.23 716.616 1022.11 717.69L1019.23 735H1015.03L1017.94 717.617L1018.04 715.688C1018.04 713.198 1017.01 711.929 1014.96 711.88C1013.28 711.831 1011.72 712.783 1010.27 714.736L1009.54 715.786L1006.22 735H1002L1006.59 708.584L1010.54 708.56ZM1046.15 731.851C1047.53 731.899 1048.7 731.468 1049.64 730.557C1050.59 729.645 1051.24 728.359 1051.62 726.699L1055.6 726.675C1055.22 729.279 1054.13 731.419 1052.3 733.096C1050.48 734.772 1048.35 735.578 1045.91 735.513C1043.58 735.464 1041.72 734.764 1040.34 733.413C1038.96 732.062 1038.13 730.166 1037.85 727.725C1037.69 726.26 1037.69 724.787 1037.87 723.306L1038.22 720.645C1038.75 716.527 1040.01 713.385 1041.98 711.221C1043.96 709.056 1046.54 708.014 1049.71 708.096C1052.16 708.161 1054.04 709.056 1055.38 710.781C1056.73 712.507 1057.35 714.81 1057.23 717.69L1053.25 717.666C1053.35 713.841 1052.09 711.88 1049.47 711.782C1045.65 711.636 1043.33 714.362 1042.54 719.961C1042.03 723.428 1041.83 725.788 1041.93 727.041C1042.09 730.199 1043.5 731.802 1046.15 731.851ZM1063.58 735H1059.35L1065.87 697.5H1070.09L1063.58 735ZM1074.7 735H1070.48L1075.07 708.584H1079.29L1074.7 735ZM1076.05 701.602C1076.08 700.902 1076.31 700.291 1076.73 699.771C1077.15 699.25 1077.73 698.973 1078.46 698.94C1079.16 698.908 1079.74 699.144 1080.2 699.648C1080.65 700.153 1080.86 700.78 1080.83 701.528C1080.8 702.244 1080.56 702.863 1080.12 703.384C1079.7 703.888 1079.12 704.149 1078.39 704.165C1077.67 704.198 1077.1 703.962 1076.66 703.457C1076.22 702.952 1076.01 702.334 1076.05 701.602ZM1089.81 708.56L1089.3 711.025C1091.17 709.007 1093.33 708.031 1095.79 708.096C1097.08 708.128 1098.2 708.462 1099.16 709.097C1100.14 709.731 1100.83 710.667 1101.24 711.904C1103.33 709.316 1105.74 708.039 1108.44 708.071C1110.21 708.12 1111.61 708.682 1112.64 709.756C1113.66 710.83 1114.26 712.327 1114.42 714.248C1114.52 715.371 1114.51 716.502 1114.39 717.642L1111.49 735H1107.31L1110.2 717.593L1110.27 715.542C1110.24 714.386 1109.93 713.491 1109.34 712.856C1108.77 712.205 1107.95 711.88 1106.88 711.88C1105.59 711.847 1104.43 712.368 1103.41 713.442C1102.38 714.517 1101.76 715.794 1101.53 717.275V717.397L1098.53 735H1094.28L1097.18 717.617C1097.25 716.966 1097.26 716.299 1097.23 715.615C1097.12 713.223 1096.01 711.986 1093.91 711.904C1091.91 711.872 1090.24 712.962 1088.91 715.176L1085.49 735H1081.29L1085.88 708.584L1089.81 708.56ZM1131.33 735C1131.23 734.512 1131.19 734.032 1131.21 733.56L1131.31 732.119C1129.44 734.382 1127.42 735.513 1125.25 735.513C1123.14 735.513 1121.49 734.829 1120.3 733.462C1119.12 732.078 1118.6 730.256 1118.73 727.993C1118.91 725.259 1120.04 723.07 1122.1 721.426C1124.19 719.782 1126.91 718.96 1130.28 718.96H1133.21L1133.63 716.152C1133.92 713.239 1132.82 711.782 1130.33 711.782C1129.05 711.782 1127.97 712.165 1127.11 712.93C1126.26 713.678 1125.72 714.663 1125.5 715.884L1121.32 715.908C1121.53 713.678 1122.54 711.807 1124.35 710.293C1126.17 708.779 1128.31 708.039 1130.77 708.071C1133.15 708.104 1134.97 708.836 1136.24 710.269C1137.53 711.685 1138.05 713.67 1137.8 716.226L1135.65 729.238C1135.51 730.166 1135.45 731.053 1135.48 731.899L1135.63 734.585L1135.58 735H1131.33ZM1126.13 731.606C1128.25 731.606 1130.07 730.573 1131.6 728.506L1132.7 722.183L1130.77 722.158C1129.11 722.158 1127.64 722.467 1126.35 723.086C1125.07 723.688 1124.15 724.535 1123.62 725.625C1123.1 726.699 1122.92 727.871 1123.08 729.141C1123.29 730.785 1124.31 731.606 1126.13 731.606ZM1152.25 702.188L1151.13 708.584H1155.01L1154.4 712.075H1150.54L1147.76 728.506L1147.71 729.482C1147.64 730.866 1148.14 731.558 1149.2 731.558C1149.59 731.574 1150.17 731.493 1150.96 731.313L1150.59 735C1149.68 735.326 1148.76 735.472 1147.83 735.439C1146.35 735.439 1145.23 734.829 1144.49 733.608C1143.74 732.388 1143.46 730.662 1143.66 728.433L1146.34 712.075H1142.41L1143.04 708.584H1146.93L1148.05 702.188H1152.25ZM1165.23 735.488C1162.27 735.456 1160.06 734.39 1158.59 732.29C1157.13 730.19 1156.59 727.326 1156.98 723.696L1157.3 721.084C1157.8 716.982 1159.05 713.776 1161.03 711.465C1163.03 709.137 1165.57 708.014 1168.65 708.096C1171.16 708.161 1173.04 709.023 1174.29 710.684C1175.56 712.327 1176.16 714.647 1176.1 717.642L1175.88 720.571L1175.51 723.086L1161.35 723.062C1161.14 724.526 1161.04 725.674 1161.06 726.504C1161.09 728.148 1161.5 729.442 1162.28 730.386C1163.06 731.313 1164.17 731.785 1165.62 731.802C1166.66 731.834 1167.69 731.631 1168.7 731.191C1169.72 730.736 1170.8 729.946 1171.92 728.823L1173.9 731.582C1172.86 732.949 1171.57 733.95 1170.04 734.585C1168.51 735.22 1166.91 735.521 1165.23 735.488ZM1168.38 711.782C1165.5 711.652 1163.48 713.394 1162.33 717.007L1161.67 719.375L1171.8 719.399L1171.92 718.765C1172.02 718.016 1172.07 717.235 1172.07 716.421C1172 713.459 1170.77 711.912 1168.38 711.782ZM1202.74 735C1202.65 734.512 1202.61 734.032 1202.62 733.56L1202.72 732.119C1200.85 734.382 1198.83 735.513 1196.67 735.513C1194.55 735.513 1192.9 734.829 1191.71 733.462C1190.54 732.078 1190.02 730.256 1190.15 727.993C1190.33 725.259 1191.45 723.07 1193.52 721.426C1195.6 719.782 1198.33 718.96 1201.69 718.96H1204.62L1205.04 716.152C1205.33 713.239 1204.23 711.782 1201.74 711.782C1200.46 711.782 1199.38 712.165 1198.52 712.93C1197.67 713.678 1197.14 714.663 1196.91 715.884L1192.73 715.908C1192.95 713.678 1193.96 711.807 1195.76 710.293C1197.58 708.779 1199.72 708.039 1202.18 708.071C1204.56 708.104 1206.38 708.836 1207.65 710.269C1208.94 711.685 1209.46 713.67 1209.21 716.226L1207.07 729.238C1206.92 730.166 1206.86 731.053 1206.89 731.899L1207.04 734.585L1206.99 735H1202.74ZM1197.54 731.606C1199.66 731.606 1201.48 730.573 1203.01 728.506L1204.11 722.183L1202.18 722.158C1200.52 722.158 1199.05 722.467 1197.76 723.086C1196.48 723.688 1195.57 724.535 1195.03 725.625C1194.51 726.699 1194.33 727.871 1194.49 729.141C1194.7 730.785 1195.72 731.606 1197.54 731.606ZM1220.98 708.56L1220.41 711.44C1222.33 709.178 1224.52 708.063 1226.96 708.096C1228.63 708.112 1229.96 708.682 1230.94 709.805C1231.93 710.928 1232.49 712.458 1232.62 714.395C1232.69 715.518 1232.66 716.616 1232.55 717.69L1229.67 735H1225.47L1228.37 717.617L1228.47 715.688C1228.47 713.198 1227.45 711.929 1225.39 711.88C1223.72 711.831 1222.16 712.783 1220.71 714.736L1219.97 715.786L1216.65 735H1212.43L1217.02 708.584L1220.98 708.56ZM1247.9 708.12C1250.32 708.185 1252.13 709.211 1253.32 711.196L1255.86 697.5H1260.08L1253.59 735H1249.75L1250.22 732.168C1248.48 734.447 1246.38 735.553 1243.94 735.488C1241.75 735.456 1240.05 734.601 1238.84 732.925C1237.65 731.248 1237.06 728.848 1237.06 725.723C1237.06 724.274 1237.25 722.354 1237.62 719.961C1237.99 717.568 1238.57 715.542 1239.35 713.882C1241.21 709.927 1244.06 708.006 1247.9 708.12ZM1241.26 726.772C1241.34 730.011 1242.68 731.655 1245.29 731.704C1246.21 731.737 1247.1 731.509 1247.95 731.021C1248.79 730.516 1249.65 729.661 1250.51 728.457L1252.81 715.078C1251.99 713.044 1250.63 711.986 1248.73 711.904C1244.87 711.709 1242.54 714.541 1241.75 720.4C1241.36 723.265 1241.19 725.389 1241.26 726.772ZM1280.97 735.488C1278.01 735.456 1275.79 734.39 1274.33 732.29C1272.86 730.19 1272.33 727.326 1272.72 723.696L1273.03 721.084C1273.54 716.982 1274.78 713.776 1276.77 711.465C1278.77 709.137 1281.31 708.014 1284.39 708.096C1286.89 708.161 1288.77 709.023 1290.03 710.684C1291.29 712.327 1291.9 714.647 1291.83 717.642L1291.61 720.571L1291.25 723.086L1277.09 723.062C1276.87 724.526 1276.78 725.674 1276.79 726.504C1276.83 728.148 1277.23 729.442 1278.01 730.386C1278.79 731.313 1279.91 731.785 1281.36 731.802C1282.4 731.834 1283.43 731.631 1284.43 731.191C1285.46 730.736 1286.53 729.946 1287.66 728.823L1289.63 731.582C1288.59 732.949 1287.31 733.95 1285.78 734.585C1284.25 735.22 1282.64 735.521 1280.97 735.488ZM1284.12 711.782C1281.24 711.652 1279.22 713.394 1278.06 717.007L1277.4 719.375L1287.54 719.399L1287.66 718.765C1287.75 718.016 1287.8 717.235 1287.8 716.421C1287.74 713.459 1286.51 711.912 1284.12 711.782ZM1302.35 708.56L1301.79 711.44C1303.71 709.178 1305.89 708.063 1308.33 708.096C1310.01 708.112 1311.33 708.682 1312.31 709.805C1313.3 710.928 1313.86 712.458 1313.99 714.395C1314.06 715.518 1314.03 716.616 1313.92 717.69L1311.04 735H1306.84L1309.75 717.617L1309.84 715.688C1309.84 713.198 1308.82 711.929 1306.77 711.88C1305.09 711.831 1303.53 712.783 1302.08 714.736L1301.35 715.786L1298.03 735H1293.8L1298.39 708.584L1302.35 708.56ZM1327.15 735.488C1324.19 735.456 1321.97 734.39 1320.51 732.29C1319.04 730.19 1318.5 727.326 1318.9 723.696L1319.21 721.084C1319.72 716.982 1320.96 713.776 1322.95 711.465C1324.95 709.137 1327.49 708.014 1330.57 708.096C1333.07 708.161 1334.95 709.023 1336.21 710.684C1337.47 712.327 1338.08 714.647 1338.01 717.642L1337.79 720.571L1337.43 723.086L1323.27 723.062C1323.05 724.526 1322.96 725.674 1322.97 726.504C1323.01 728.148 1323.41 729.442 1324.19 730.386C1324.97 731.313 1326.09 731.785 1327.54 731.802C1328.58 731.834 1329.61 731.631 1330.61 731.191C1331.64 730.736 1332.71 729.946 1333.84 728.823L1335.81 731.582C1334.77 732.949 1333.49 733.95 1331.96 734.585C1330.43 735.22 1328.82 735.521 1327.15 735.488ZM1330.3 711.782C1327.42 711.652 1325.4 713.394 1324.24 717.007L1323.58 719.375L1333.71 719.399L1333.84 718.765C1333.93 718.016 1333.98 717.235 1333.98 716.421C1333.92 713.459 1332.69 711.912 1330.3 711.782ZM1354.63 712.612C1353.93 712.466 1353.31 712.393 1352.75 712.393C1350.62 712.393 1348.86 713.621 1347.48 716.079L1344.21 735H1339.98L1344.57 708.584L1348.65 708.56L1348.06 711.27C1349.61 709.072 1351.35 707.998 1353.29 708.047C1353.68 708.063 1354.28 708.185 1355.1 708.413L1354.63 712.612ZM1366.22 708.096C1368.81 708.161 1370.67 709.316 1371.81 711.562L1372.69 708.584H1376.53L1372.01 735.22C1371.73 737.303 1371.11 739.134 1370.15 740.713C1369.21 742.292 1367.98 743.488 1366.47 744.302C1364.95 745.116 1363.23 745.49 1361.29 745.425C1359.91 745.392 1358.52 745.05 1357.12 744.399C1355.72 743.765 1354.59 742.951 1353.72 741.958L1355.72 739.053C1357.3 740.778 1359.1 741.673 1361.12 741.738C1362.89 741.803 1364.35 741.307 1365.49 740.249C1366.65 739.191 1367.41 737.596 1367.79 735.464L1368.42 732.388C1366.68 734.52 1364.64 735.553 1362.32 735.488C1360.05 735.456 1358.33 734.577 1357.14 732.852C1355.97 731.126 1355.4 728.758 1355.43 725.747C1355.43 724.461 1355.59 722.703 1355.9 720.474C1356.47 716.388 1357.61 713.288 1359.34 711.172C1361.08 709.04 1363.37 708.014 1366.22 708.096ZM1359.63 726.772C1359.71 730.011 1361.05 731.655 1363.63 731.704C1365.59 731.753 1367.34 730.654 1368.88 728.408L1371.15 715.151C1370.31 713.068 1368.96 711.986 1367.1 711.904C1363.2 711.758 1360.86 714.639 1360.09 720.547C1359.72 723.395 1359.57 725.47 1359.63 726.772ZM1386.36 727.749L1394.37 708.584H1398.98L1385.31 739.102C1384.38 741.315 1383.27 742.983 1381.99 744.106C1380.72 745.246 1379.34 745.791 1377.84 745.742C1377.33 745.726 1376.54 745.579 1375.45 745.303L1375.86 741.641L1376.76 741.787C1378.9 741.885 1380.56 740.794 1381.74 738.516L1383.53 734.512L1380.55 708.584H1384.99L1386.36 727.749Z" fill="white"/>
</svg>
